<?xml version="1.0" encoding="utf-8"?>
<!-- Generator: Adobe Illustrator 16.0.0, SVG Export Plug-In . SVG Version: 6.00 Build 0)  -->
<!DOCTYPE svg PUBLIC "-//W3C//DTD SVG 1.1//EN" "http://www.w3.org/Graphics/SVG/1.1/DTD/svg11.dtd">
<svg version="1.1" id="Layer_1" xmlns="http://www.w3.org/2000/svg" xmlns:xlink="http://www.w3.org/1999/xlink" x="0px" y="0px"
	 width="803.388px" height="176.686px" viewBox="0 0 803.388 176.686" enable-background="new 0 0 803.388 176.686"
	 xml:space="preserve">
<g>
	<g>
		<circle fill="#FFFFFF" cx="88.352" cy="88.342" r="88.336"/>
		<g>
			<linearGradient id="SVGID_1_" gradientUnits="userSpaceOnUse" x1="164.4585" y1="12.2354" x2="11.1076" y2="165.5863">
				<stop  offset="0.2581" style="stop-color:#1D97BE"/>
				<stop  offset="0.543" style="stop-color:#2D8E94"/>
				<stop  offset="1" style="stop-color:#3A8C6B"/>
			</linearGradient>
			<path opacity="0.5" fill="url(#SVGID_1_)" d="M88.351,0.007c-33.154,0-62.042,18.264-77.151,45.279
				c15.717-19.281,39.652-31.597,66.468-31.597c47.337,0,85.712,38.374,85.712,85.711c0,25.748-11.355,48.841-29.329,64.552
				c25.557-15.479,42.637-43.549,42.637-75.611C176.688,39.556,137.138,0.007,88.351,0.007z"/>
			<linearGradient id="SVGID_2_" gradientUnits="userSpaceOnUse" x1="154.8599" y1="2.6357" x2="1.5094" y2="155.9862">
				<stop  offset="0.2581" style="stop-color:#1D97BE"/>
				<stop  offset="0.543" style="stop-color:#2D8E94"/>
				<stop  offset="1" style="stop-color:#3A8C6B"/>
			</linearGradient>
			<path opacity="0.5" fill="url(#SVGID_2_)" d="M11.85,44.174c-16.577,28.712-15.204,62.863,0.639,89.455
				c-8.84-23.25-7.539-50.138,5.869-73.362c23.669-40.995,76.089-55.04,117.085-31.372c22.298,12.874,36.621,34.255,41.24,57.677
				c-0.627-29.874-16.397-58.7-44.163-74.73C90.269-12.552,36.244,1.925,11.85,44.174z"/>
			<linearGradient id="SVGID_3_" gradientUnits="userSpaceOnUse" x1="155.6274" y1="3.4043" x2="2.2769" y2="156.7548">
				<stop  offset="0.2581" style="stop-color:#1D97BE"/>
				<stop  offset="0.543" style="stop-color:#2D8E94"/>
				<stop  offset="1" style="stop-color:#3A8C6B"/>
			</linearGradient>
			<path opacity="0.5" fill="url(#SVGID_3_)" d="M11.85,132.51c16.577,28.713,46.838,44.6,77.79,44.176
				c-24.557-3.971-47.19-18.541-60.598-41.764C5.372,93.925,19.418,41.505,60.414,17.837C82.712,4.963,108.39,3.25,130.983,10.96
				c-26.184-14.393-59.034-15.149-86.8,0.881C1.932,36.234-12.544,90.259,11.85,132.51z"/>
			<linearGradient id="SVGID_4_" gradientUnits="userSpaceOnUse" x1="164.4585" y1="12.2354" x2="11.1081" y2="165.5857">
				<stop  offset="0.2581" style="stop-color:#1D97BE"/>
				<stop  offset="0.543" style="stop-color:#2D8E94"/>
				<stop  offset="1" style="stop-color:#3A8C6B"/>
			</linearGradient>
			<path opacity="0.5" fill="url(#SVGID_4_)" d="M88.351,176.678c33.154,0,62.042-18.264,77.152-45.279
				c-15.717,19.281-39.653,31.598-66.468,31.598c-47.337,0-85.712-38.375-85.712-85.711c0-25.748,11.355-48.843,29.329-64.553
				c-25.557,15.48-42.637,43.55-42.637,75.61C0.015,137.129,39.564,176.678,88.351,176.678z"/>
			<linearGradient id="SVGID_5_" gradientUnits="userSpaceOnUse" x1="174.0581" y1="21.834" x2="20.7067" y2="175.1854">
				<stop  offset="0.2581" style="stop-color:#1D97BE"/>
				<stop  offset="0.543" style="stop-color:#2D8E94"/>
				<stop  offset="1" style="stop-color:#3A8C6B"/>
			</linearGradient>
			<path opacity="0.5" fill="url(#SVGID_5_)" d="M164.853,132.51c16.577-28.71,15.204-62.862-0.638-89.455
				c8.84,23.252,7.539,50.14-5.869,73.362c-23.669,40.995-76.089,55.04-117.085,31.372C18.962,134.916,4.64,113.535,0.02,90.114
				c0.627,29.873,16.397,58.701,44.163,74.73C86.433,189.236,140.459,174.762,164.853,132.51z"/>
			<linearGradient id="SVGID_6_" gradientUnits="userSpaceOnUse" x1="173.291" y1="21.0669" x2="19.9409" y2="174.417">
				<stop  offset="0.2581" style="stop-color:#1D97BE"/>
				<stop  offset="0.543" style="stop-color:#2D8E94"/>
				<stop  offset="1" style="stop-color:#3A8C6B"/>
			</linearGradient>
			<path opacity="0.5" fill="url(#SVGID_6_)" d="M164.853,44.174C148.276,15.463,118.015-0.423,87.063,0
				c24.557,3.97,47.191,18.541,60.598,41.764c23.669,40.996,9.623,93.416-31.373,117.083c-22.298,12.875-47.976,14.588-70.569,6.877
				c26.184,14.393,59.035,15.15,86.799-0.881C174.77,140.451,189.247,86.426,164.853,44.174z"/>
		</g>
		<circle fill="#777777" cx="88.352" cy="88.342" r="56.118"/>
		<circle fill="#676767" cx="88.351" cy="88.342" r="31.661"/>
		<circle fill="#FFFFFF" cx="88.351" cy="88.344" r="11.047"/>
		<circle fill="#FFFFFF" cx="103.497" cy="73.403" r="4.739"/>
	</g>
	<g>
		<linearGradient id="SVGID_7_" gradientUnits="userSpaceOnUse" x1="52.3862" y1="52.3779" x2="112.7978" y2="112.7895">
			<stop  offset="0" style="stop-color:#FEFEFF;stop-opacity:0"/>
			<stop  offset="0.9104" style="stop-color:#FEFEFF;stop-opacity:0.9104"/>
			<stop  offset="1" style="stop-color:#FEFEFF"/>
		</linearGradient>
		<path fill="url(#SVGID_7_)" d="M88.351,32.225c-30.993,0-56.118,25.125-56.118,56.117c0,15.498,6.282,29.527,16.437,39.683
			l79.363-79.363C117.877,38.506,103.848,32.225,88.351,32.225z"/>
	</g>
</g>
<g>
	<path fill="#2D8E94" d="M216.07,133.691c-5.899-2.568-9.428-6.394-11.843-9.44l-1.905-2.402l4.966-3.688l1.905,2.402
		c4.417,5.569,9.911,10.569,28.374,10.569c17.103,0,27.727-8.174,27.727-21.333c0-12.046-10.56-15.512-27.953-19.788
		c-7.741-1.904-15.746-3.872-21.888-7.465c-3.524-2.062-6.134-4.456-7.98-7.322c-2.063-3.202-3.108-6.989-3.108-11.256
		c0-7.249,2.702-13.293,7.813-17.478c5.672-4.644,14.214-6.998,25.388-6.998c10.483,0,20.264,4.753,26.836,13.039l1.905,2.403
		l-4.966,3.687l-1.906-2.402c-5.377-6.78-13.349-10.67-21.87-10.67c-9.652,0-16.834,1.872-21.345,5.565
		c-3.714,3.04-5.597,7.365-5.597,12.854c0,12.334,10.675,15.849,28.258,20.172c7.677,1.888,15.616,3.84,21.691,7.376
		c3.489,2.03,6.073,4.388,7.9,7.206c2.043,3.153,3.08,6.88,3.08,11.077c0,3.794-0.729,7.378-2.167,10.651
		c-1.488,3.387-3.698,6.356-6.568,8.824c-6.022,5.178-14.754,7.915-25.252,7.915C228.378,137.189,221.548,136.078,216.07,133.691z"
		/>
	<path fill="#2D8E94" d="M378.154,92.522v44.669h-6.23V92.522c0-11.716-8.721-21.247-19.441-21.247s-19.44,9.531-19.44,21.247
		v44.669h-6.23V92.522c0-11.716-8.721-21.247-19.441-21.247c-10.719,0-19.44,9.531-19.44,21.247v44.669h-6.231V92.522
		c0-7.295,2.641-14.165,7.436-19.344c4.856-5.245,11.333-8.135,18.235-8.135c6.903,0,13.379,2.89,18.236,8.135
		c1.728,1.866,3.174,3.953,4.32,6.2c1.146-2.247,2.592-4.334,4.32-6.2c4.856-5.245,11.332-8.135,18.235-8.135
		s13.379,2.89,18.235,8.135C375.513,78.357,378.154,85.227,378.154,92.522z"/>
	<path fill="#2D8E94" d="M398.048,131.254c-5.039-4-7.813-9.385-7.813-15.161c0-5.776,2.773-11.161,7.813-15.162
		c4.826-3.834,11.201-5.944,17.951-5.944l15.123-0.012c0,0,1.961,0.097,3.09-0.968c0.801-0.755,1.234-2.018,1.297-3.76V86.15
		c0-8.189-8.268-14.853-18.43-14.853c-6.518,0-12.428,2.705-15.807,7.236l-1.871,2.506L394.39,77.3l1.869-2.506
		c4.555-6.105,12.34-9.751,20.82-9.751c6.488,0,12.613,2.128,17.246,5.992c4.795,4,7.436,9.368,7.436,15.114v29.942
		c0,5.776-2.773,11.161-7.811,15.162c-4.826,3.834-11.201,5.945-17.951,5.945S402.875,135.088,398.048,131.254z M416.001,101.24
		c-5.346,0-10.34,1.629-14.064,4.588c-3.514,2.79-5.447,6.436-5.447,10.265s1.934,7.475,5.447,10.266
		c3.725,2.958,8.719,4.587,14.063,4.587c5.342,0,10.336-1.629,14.061-4.587c3.514-2.791,5.449-6.437,5.449-10.266v-15.631
		c-2.021,0.813-3.867,0.8-4.482,0.767L416.001,101.24z"/>
	<path fill="#2D8E94" d="M459.519,137.191V92.546c0-7.302,2.645-14.179,7.443-19.363c4.861-5.251,11.346-8.144,18.256-8.144v6.238
		c-10.73,0-19.461,9.541-19.461,21.27v44.644H459.519z"/>
	<path fill="#2D8E94" d="M529.742,130.945v6.246c-6.92,0-13.412-2.896-18.281-8.155c-4.809-5.193-7.455-12.08-7.455-19.394v-70.15
		h6.246v27.762c1.498-0.586,3.225-0.883,5.174-0.883h14.316v6.247h-14.316c-1.992,0-3.414,0.449-4.225,1.335
		c-0.814,0.89-0.934,2.145-0.949,2.603v33.087C510.251,121.389,518.996,130.945,529.742,130.945z"/>
	<path fill="#777777" d="M552.343,137.418c-4.938-2.223-7.912-5.568-9.789-8.013l-3.789-4.939l9.877-7.579l3.791,4.938
		c2.479,3.23,4.746,6.014,16.523,6.014c10.355,0,15.236-4.588,15.236-11.287c0-2.826-0.795-4.277-3.564-5.942
		c-2.939-1.768-7.857-3.096-12.826-4.358c-1.281-0.325-2.586-0.657-3.896-1.011c-4.268-1.15-8.623-2.516-12.426-4.814
		c-6.234-3.77-9.666-9.66-9.666-16.82c0-6.262,2.346-11.827,6.869-15.654c4.908-4.152,11.857-5.988,20.273-5.988
		c8.572,0,16.564,4.033,21.877,10.957l3.791,4.939l-9.879,7.58l-3.789-4.939c-3.006-3.915-7.365-6.086-12-6.086
		c-11.232,0-14.691,3.387-14.691,9.192c0,2.942,0.834,4.458,3.656,6.164c2.979,1.8,7.934,3.139,12.947,4.413
		c2.063,0.523,4.191,1.063,6.305,1.688c3.424,1.012,6.826,2.236,9.871,4.068c6.184,3.719,9.6,9.537,9.6,16.612
		c0,6.635-2.623,12.751-7.436,17.027c-5.082,4.516-12.176,6.711-20.252,6.711C562.181,140.289,556.837,139.443,552.343,137.418z"/>
	<path fill="#777777" d="M670.611,93.519v46.788H658.15V93.519c0-10.231-7.566-18.132-16.322-18.132l-14.908,0.017
		c-0.303,0.012-0.885,0.007-1.42-0.028v64.931h-12.461V36.377H625.5v24.461c0,1.369,0.322,1.93,0.344,1.958
		c0.119,0.068,0.576,0.152,0.645,0.155l15.332-0.026c7.795,0,15.078,3.249,20.492,9.097
		C667.667,77.806,670.611,85.471,670.611,93.519z"/>
	<path fill="#777777" d="M706.314,136.992c-4.121-2.039-7.795-4.945-10.904-8.588c-6.307-7.384-9.723-17.092-9.723-27.312
		s3.416-19.928,9.723-27.313c3.109-3.642,6.783-6.549,10.904-8.589c4.311-2.136,8.945-3.232,13.701-3.232s9.391,1.097,13.703,3.232
		c4.119,2.041,7.793,4.947,10.904,8.589c6.305,7.385,9.721,17.093,9.721,27.313s-3.416,19.928-9.721,27.313
		c-3.111,3.642-6.785,6.548-10.904,8.587c-4.313,2.137-8.947,3.234-13.703,3.234S710.625,139.129,706.314,136.992z M698.148,101.092
		c0,15.172,10.279,26.672,21.867,26.672c11.59,0,21.867-11.499,21.867-26.672s-10.279-26.673-21.867-26.673
		S698.148,85.918,698.148,101.092z"/>
	<path fill="#777777" d="M800.271,127.829h3.117v12.478h-3.117c-7.807,0-15.143-3.293-20.568-9.154
		c-5.355-5.786-8.283-13.443-8.283-21.509V36.377h12.479v26.979c0.971-0.091,1.313-0.101,2.057-0.101h17.434v12.478h-17.434
		c-1.279,0-1.863,0.285-1.924,0.324c-0.047,0.086-0.127,0.471-0.133,0.564v33.021C783.898,119.904,791.484,127.83,800.271,127.829z"
		/>
</g>
</svg>
