<?xml version="1.0" encoding="utf-8"?>
<!-- Generator: Adobe Illustrator 16.0.0, SVG Export Plug-In . SVG Version: 6.00 Build 0)  -->
<!DOCTYPE svg PUBLIC "-//W3C//DTD SVG 1.1//EN" "http://www.w3.org/Graphics/SVG/1.1/DTD/svg11.dtd">
<svg version="1.1" id="Layer_1" xmlns="http://www.w3.org/2000/svg" xmlns:xlink="http://www.w3.org/1999/xlink" x="0px" y="0px"
	 width="18.962px" height="18.497px" viewBox="0 0 18.962 18.497" enable-background="new 0 0 18.962 18.497" xml:space="preserve">
<g id="XMLID_133_">
	<path id="XMLID_134_" fill="#AAAAAA" d="M18.962,15.025c0,1.916-1.596,3.472-3.552,3.472c-1.96,0-3.552-1.556-3.552-3.472v-0.011
		l-6.141-3.001c-0.587,0.439-1.324,0.701-2.127,0.701c-1.958,0-3.552-1.56-3.552-3.471c0-1.913,1.594-3.461,3.552-3.461
		c0.803,0,1.54,0.262,2.127,0.69l6.141-3l0,0C11.858,1.548,13.45,0,15.41,0c1.956,0,3.552,1.548,3.552,3.473
		c0,1.912-1.596,3.458-3.552,3.458c-0.803,0-1.541-0.261-2.14-0.688l-6.161,3l6.161,3.012c0.599-0.439,1.337-0.701,2.14-0.701
		C17.366,11.554,18.962,13.111,18.962,15.025z"/>
</g>
</svg>
